<?xml version="1.0" encoding="utf-8"?>
<!-- Generator: Adobe Illustrator 28.3.0, SVG Export Plug-In . SVG Version: 6.00 Build 0)  -->
<svg version="1.1" id="Layer_1" xmlns="http://www.w3.org/2000/svg" xmlns:xlink="http://www.w3.org/1999/xlink" x="0px" y="0px"
	 viewBox="0 0 622 50" style="enable-background:new 0 0 622 50;" xml:space="preserve">
<style type="text/css">
	.st0{fill:none;stroke:#010101;stroke-width:1.4783;stroke-linejoin:round;stroke-miterlimit:10;}
</style>
<g>
	<line class="st0" x1="22.7" y1="45.7" x2="22.7" y2="22.5"/>
	<polyline class="st0" points="4.9,13.2 22.8,22.8 40.7,13.2 	"/>
	<polygon class="st0" points="40.7,36.1 40.7,13.2 22.7,4.3 4.9,13.2 4.9,36.1 22.8,45.7 	"/>
	<line class="st0" x1="22.8" y1="22.8" x2="40.7" y2="13.2"/>
	<polyline class="st0" points="29.9,7.4 11.9,17 11.9,24.8 16.9,27.5 16.9,19.7 34.8,10 	"/>
</g>
<g>
	<path d="M56.8,32.2V16.8h9.5v1.5h-7.7v5.3h7.3v1.5h-7.3v7.1C58.6,32.2,56.8,32.2,56.8,32.2z"/>
	<path d="M81,32.2h-2l-2.6-4.9c-0.3-0.6-0.7-1-1.1-1.2s-1-0.3-1.8-0.3h-2.9v6.5H69V16.8h6.3c1.7,0,2.9,0.4,3.8,1.1s1.3,1.8,1.3,3.3
		c0,1.2-0.3,2.2-1,2.9s-1.6,1.2-2.9,1.4c0.4,0.1,0.7,0.3,1,0.6c0.3,0.3,0.6,0.6,0.8,1.1L81,32.2z M75.1,24.2c1.2,0,2.1-0.2,2.7-0.7
		s0.9-1.2,0.9-2.2s-0.3-1.7-0.9-2.2s-1.5-0.7-2.7-0.7h-4.4v5.9L75.1,24.2L75.1,24.2z"/>
	<path d="M83.9,32.2V16.8h9.7v1.5h-7.9v5.3h7.5v1.5h-7.5v5.6h7.9v1.5C93.6,32.2,83.9,32.2,83.9,32.2z"/>
	<path d="M96.6,32.2V16.8h9.7v1.5h-7.9v5.3h7.5v1.5h-7.5v5.6h7.9v1.5C106.3,32.2,96.6,32.2,96.6,32.2z"/>
	<path d="M114,30.4l0.7-1.4c0.8,0.6,1.5,1.1,2.3,1.4s1.7,0.4,2.8,0.4c1.2,0,2.2-0.2,2.9-0.7c0.7-0.5,1-1.2,1-2
		c0-0.5-0.2-0.9-0.5-1.2c-0.3-0.3-0.7-0.6-1.3-0.8s-1.2-0.4-2.1-0.6c-1.2-0.3-2.2-0.6-2.9-0.9s-1.4-0.7-1.9-1.3s-0.7-1.3-0.7-2.2
		c0-0.9,0.2-1.6,0.7-2.3s1.1-1.2,2-1.6s1.8-0.6,3-0.6c1.1,0,2,0.2,3,0.5c0.9,0.3,1.7,0.8,2.3,1.4l-0.7,1.4c-0.7-0.6-1.5-1.1-2.2-1.4
		s-1.6-0.4-2.4-0.4c-1.2,0-2.1,0.3-2.8,0.8c-0.7,0.5-1,1.2-1,2.1c0,0.8,0.3,1.3,0.9,1.7c0.6,0.4,1.5,0.7,2.7,1
		c1.3,0.3,2.4,0.6,3.1,0.9c0.8,0.3,1.4,0.7,1.9,1.2s0.8,1.3,0.8,2.2c0,0.9-0.2,1.6-0.7,2.3s-1.1,1.2-2,1.5c-0.9,0.4-1.9,0.5-3,0.5
		C117.3,32.4,115.4,31.7,114,30.4z"/>
	<path d="M139.2,16.8h1.8v15.3h-1.8v-7H130v7h-1.8V16.8h1.8v6.8h9.2V16.8z"/>
	<path d="M144.8,32.2V16.8h1.8v15.3h-1.8V32.2z"/>
	<path d="M150.3,16.8h6.1c1.6,0,2.9,0.4,3.8,1.2s1.3,1.9,1.3,3.3s-0.4,2.6-1.3,3.4c-0.9,0.8-2.1,1.2-3.7,1.2h-4.3v6.3h-1.8V16.8
		H150.3z M156.2,24.4c2.3,0,3.5-1,3.5-3.1c0-2-1.2-3-3.5-3h-4.1v6.1H156.2z"/>
	<path d="M164.4,16.8h6.1c1.6,0,2.9,0.4,3.8,1.2s1.3,1.9,1.3,3.3s-0.4,2.6-1.3,3.4c-0.9,0.8-2.1,1.2-3.7,1.2h-4.3v6.3h-1.8V16.8
		H164.4z M170.3,24.4c2.3,0,3.5-1,3.5-3.1c0-2-1.2-3-3.5-3h-4.1v6.1H170.3z"/>
	<path d="M178.4,32.2V16.8h1.8v15.3h-1.8V32.2z"/>
	<path d="M194.6,16.8h1.7v15.3h-1.4l-9.3-12.3v12.3H184V16.8h1.4l9.3,12.3L194.6,16.8L194.6,16.8z"/>
	<path d="M212.2,24.2v7.1c-0.6,0.3-1.4,0.6-2.4,0.8s-2,0.3-3,0.3c-1.5,0-2.8-0.3-3.9-0.9c-1.1-0.6-1.9-1.5-2.5-2.7s-0.9-2.6-0.9-4.2
		c0-1.6,0.3-3,0.9-4.2c0.6-1.2,1.4-2.1,2.5-2.7s2.4-0.9,3.9-0.9c1.1,0,2.1,0.2,3,0.5s1.7,0.8,2.3,1.4l-0.7,1.4
		c-0.7-0.6-1.5-1.1-2.2-1.4s-1.5-0.4-2.4-0.4c-1.7,0-3.1,0.5-4,1.6s-1.4,2.6-1.4,4.7s0.5,3.7,1.4,4.7c0.9,1.1,2.3,1.6,4.1,1.6
		c1.3,0,2.5-0.2,3.7-0.6v-4.7h-3.8v-1.4C206.8,24.2,212.2,24.2,212.2,24.2z"/>
	<path d="M221.5,32.2V16.8h9.5v1.5h-7.7v5.3h7.3v1.5h-7.3v7.1C223.3,32.2,221.5,32.2,221.5,32.2z"/>
	<path d="M236,31.4c-1.1-0.6-1.9-1.5-2.4-2.7c-0.6-1.2-0.8-2.6-0.8-4.2c0-1.6,0.3-3,0.8-4.2c0.6-1.2,1.4-2.1,2.4-2.7
		c1.1-0.6,2.3-0.9,3.7-0.9s2.7,0.3,3.7,0.9c1.1,0.6,1.9,1.5,2.4,2.7c0.6,1.2,0.8,2.6,0.8,4.2s-0.3,3-0.8,4.2
		c-0.6,1.2-1.4,2.1-2.4,2.7c-1.1,0.6-2.3,1-3.7,1C238.2,32.4,237,32,236,31.4z M243.5,29.2c0.9-1.1,1.4-2.7,1.4-4.7
		s-0.5-3.6-1.3-4.7c-0.9-1.1-2.2-1.6-3.8-1.6s-2.9,0.5-3.8,1.6c-0.9,1.1-1.4,2.7-1.4,4.7s0.5,3.6,1.4,4.7s2.2,1.7,3.8,1.7
		C241.3,30.8,242.6,30.3,243.5,29.2z"/>
	<path d="M262,32.2h-2l-2.6-4.9c-0.3-0.6-0.7-1-1.1-1.2s-1-0.3-1.8-0.3h-2.9v6.5h-1.8V16.8h6.3c1.7,0,2.9,0.4,3.8,1.1
		s1.3,1.8,1.3,3.3c0,1.2-0.3,2.2-1,2.9s-1.6,1.2-2.9,1.4c0.4,0.1,0.7,0.3,1,0.6c0.3,0.3,0.6,0.6,0.8,1.1L262,32.2z M256,24.2
		c1.2,0,2.1-0.2,2.7-0.7s0.9-1.2,0.9-2.2s-0.3-1.7-0.9-2.2s-1.5-0.7-2.7-0.7h-4.4v5.9L256,24.2L256,24.2z"/>
	<path d="M282.2,32.2l-1.7-3.9h-8l-1.7,3.9H269l6.7-15.3h1.5l6.7,15.3H282.2z M273.1,26.8h6.7l-3.4-7.9L273.1,26.8z"/>
	<path d="M287.6,30.8c-1-1-1.5-2.6-1.5-4.6v-9.3h1.8v9.5c0,1.5,0.4,2.6,1.1,3.4s1.8,1.1,3.2,1.1c1.4,0,2.5-0.4,3.2-1.1
		s1.1-1.9,1.1-3.4v-9.5h1.8v9.3c0,2-0.5,3.6-1.6,4.6c-1,1.1-2.6,1.6-4.5,1.6C290.1,32.4,288.6,31.8,287.6,30.8z"/>
	<path d="M301,30.4l0.7-1.4c0.8,0.6,1.5,1.1,2.3,1.4s1.7,0.4,2.8,0.4c1.2,0,2.2-0.2,2.9-0.7c0.7-0.5,1-1.2,1-2
		c0-0.5-0.2-0.9-0.5-1.2c-0.3-0.3-0.7-0.6-1.3-0.8s-1.2-0.4-2.1-0.6c-1.2-0.3-2.2-0.6-2.9-0.9s-1.4-0.7-1.9-1.3s-0.7-1.3-0.7-2.2
		c0-0.9,0.2-1.6,0.7-2.3s1.1-1.2,2-1.6s1.8-0.6,3-0.6c1.1,0,2,0.2,3,0.5c0.9,0.3,1.7,0.8,2.3,1.4l-0.7,1.4c-0.7-0.6-1.5-1.1-2.2-1.4
		s-1.6-0.4-2.4-0.4c-1.2,0-2.1,0.3-2.8,0.8c-0.7,0.5-1,1.2-1,2.1c0,0.8,0.3,1.3,0.9,1.7c0.6,0.4,1.5,0.7,2.7,1
		c1.3,0.3,2.4,0.6,3.1,0.9c0.8,0.3,1.4,0.7,1.9,1.2s0.8,1.3,0.8,2.2c0,0.9-0.2,1.6-0.7,2.3s-1.1,1.2-2,1.5c-0.9,0.4-1.9,0.5-3,0.5
		C304.4,32.4,302.5,31.7,301,30.4z"/>
	<path d="M314.6,33.6l-1.5-0.5l5.6-17.3l1.5,0.5L314.6,33.6z"/>
	<path d="M332.2,16.8h1.7v15.3h-1.4l-9.3-12.3v12.3h-1.7V16.8h1.4l9.3,12.3V16.8z"/>
	<path d="M338.8,30.7h9v1.5h-11.1v-1.3l8.8-12.5h-8.8v-1.5h10.8v1.3L338.8,30.7z"/>
	<path d="M358.9,31.4c-1.1-0.6-1.9-1.5-2.4-2.7c-0.6-1.2-0.8-2.6-0.8-4.2c0-1.6,0.3-3,0.8-4.2c0.6-1.2,1.4-2.1,2.4-2.7
		c1.1-0.6,2.3-0.9,3.7-0.9c1.4,0,2.7,0.3,3.7,0.9c1.1,0.6,1.9,1.5,2.4,2.7c0.6,1.2,0.8,2.6,0.8,4.2s-0.3,3-0.8,4.2
		c-0.6,1.2-1.4,2.1-2.4,2.7c-1.1,0.6-2.3,1-3.7,1C361.2,32.4,359.9,32,358.9,31.4z M366.4,29.2c0.9-1.1,1.4-2.7,1.4-4.7
		s-0.5-3.6-1.3-4.7c-0.9-1.1-2.2-1.6-3.8-1.6c-1.6,0-2.9,0.5-3.8,1.6s-1.4,2.7-1.4,4.7s0.5,3.6,1.4,4.7s2.2,1.7,3.8,1.7
		C364.2,30.8,365.5,30.3,366.4,29.2z"/>
	<path d="M384.9,32.2h-2l-2.6-4.9c-0.3-0.6-0.7-1-1.1-1.2s-1-0.3-1.8-0.3h-2.9v6.5h-1.8V16.8h6.3c1.7,0,2.9,0.4,3.8,1.1
		s1.3,1.8,1.3,3.3c0,1.2-0.3,2.2-1,2.9s-1.6,1.2-2.9,1.4c0.4,0.1,0.7,0.3,1,0.6c0.3,0.3,0.6,0.6,0.8,1.1L384.9,32.2z M379,24.2
		c1.2,0,2.1-0.2,2.7-0.7s0.9-1.2,0.9-2.2s-0.3-1.7-0.9-2.2s-1.5-0.7-2.7-0.7h-4.4v5.9L379,24.2L379,24.2z"/>
	<path d="M387.7,16.8h5.2c2.5,0,4.3,0.7,5.7,2c1.3,1.3,2,3.2,2,5.7s-0.7,4.3-2,5.7c-1.3,1.3-3.2,2-5.7,2h-5.2V16.8z M392.8,30.7
		c4,0,6-2.1,6-6.2s-2-6.1-6-6.1h-3.3v12.3H392.8z"/>
	<path d="M403.8,32.2V16.8h9.7v1.5h-7.9v5.3h7.5v1.5h-7.5v5.6h7.9v1.5C413.5,32.2,403.8,32.2,403.8,32.2z"/>
	<path d="M428.6,32.2h-2l-2.6-4.9c-0.3-0.6-0.7-1-1.1-1.2s-1-0.3-1.8-0.3h-2.9v6.5h-1.8V16.8h6.3c1.7,0,2.9,0.4,3.8,1.1
		s1.3,1.8,1.3,3.3c0,1.2-0.3,2.2-1,2.9s-1.6,1.2-2.9,1.4c0.4,0.1,0.7,0.3,1,0.6c0.3,0.3,0.6,0.6,0.8,1.1L428.6,32.2z M422.6,24.2
		c1.2,0,2.1-0.2,2.7-0.7s0.9-1.2,0.9-2.2s-0.3-1.7-0.9-2.2s-1.5-0.7-2.7-0.7h-4.4v5.9L422.6,24.2L422.6,24.2z"/>
	<path d="M430.5,30.4l0.7-1.4c0.8,0.6,1.5,1.1,2.3,1.4s1.7,0.4,2.8,0.4c1.2,0,2.2-0.2,2.9-0.7c0.7-0.5,1-1.2,1-2
		c0-0.5-0.2-0.9-0.5-1.2c-0.3-0.3-0.7-0.6-1.3-0.8s-1.2-0.4-2.1-0.6c-1.2-0.3-2.2-0.6-2.9-0.9s-1.4-0.7-1.9-1.3s-0.7-1.3-0.7-2.2
		c0-0.9,0.2-1.6,0.7-2.3s1.1-1.2,2-1.6s1.8-0.6,3-0.6c1.1,0,2,0.2,3,0.5c0.9,0.3,1.7,0.8,2.3,1.4L441,20c-0.7-0.6-1.5-1.1-2.2-1.4
		s-1.6-0.4-2.4-0.4c-1.2,0-2.1,0.3-2.8,0.8c-0.7,0.5-1,1.2-1,2.1c0,0.8,0.3,1.3,0.9,1.7c0.6,0.4,1.5,0.7,2.7,1
		c1.3,0.3,2.4,0.6,3.1,0.9c0.8,0.3,1.4,0.7,1.9,1.2s0.8,1.3,0.8,2.2c0,0.9-0.2,1.6-0.7,2.3s-1.1,1.2-2,1.5c-0.9,0.4-1.9,0.5-3,0.5
		C433.9,32.4,432,31.7,430.5,30.4z"/>
	<path d="M453.2,31.4c-1.1-0.6-1.9-1.5-2.4-2.7c-0.6-1.2-0.8-2.6-0.8-4.2c0-1.6,0.3-3,0.8-4.2c0.6-1.2,1.4-2.1,2.4-2.7
		c1.1-0.6,2.3-0.9,3.7-0.9c1.4,0,2.7,0.3,3.7,0.9c1.1,0.6,1.9,1.5,2.4,2.7c0.6,1.2,0.8,2.6,0.8,4.2s-0.3,3-0.8,4.2
		c-0.6,1.2-1.4,2.1-2.4,2.7c-1.1,0.6-2.3,1-3.7,1C455.4,32.4,454.2,32,453.2,31.4z M460.7,29.2c0.9-1.1,1.4-2.7,1.4-4.7
		s-0.5-3.6-1.3-4.7c-0.9-1.1-2.2-1.6-3.8-1.6c-1.6,0-2.9,0.5-3.8,1.6s-1.4,2.7-1.4,4.7s0.5,3.6,1.4,4.7s2.2,1.7,3.8,1.7
		C458.5,30.8,459.8,30.3,460.7,29.2z"/>
	<path d="M478,16.8h1.8l-6.7,15.3h-1.5l-6.7-15.3h1.9l5.6,13.1L478,16.8z"/>
	<path d="M481.8,32.2V16.8h9.7v1.5h-7.9v5.3h7.5v1.5h-7.5v5.6h7.9v1.5C491.5,32.2,481.8,32.2,481.8,32.2z"/>
	<path d="M506.5,32.2h-2l-2.6-4.9c-0.3-0.6-0.7-1-1.1-1.2s-1-0.3-1.8-0.3h-2.9v6.5h-1.8V16.8h6.3c1.7,0,2.9,0.4,3.8,1.1
		s1.3,1.8,1.3,3.3c0,1.2-0.3,2.2-1,2.9s-1.6,1.2-2.9,1.4c0.4,0.1,0.7,0.3,1,0.6c0.3,0.3,0.6,0.6,0.8,1.1L506.5,32.2z M500.6,24.2
		c1.2,0,2.1-0.2,2.7-0.7s0.9-1.2,0.9-2.2s-0.3-1.7-0.9-2.2s-1.5-0.7-2.7-0.7h-4.4v5.9L500.6,24.2L500.6,24.2z"/>
	<path d="M526.7,32.2l-1.7-3.9h-8l-1.7,3.9h-1.8l6.7-15.3h1.5l6.7,15.3H526.7z M517.6,26.8h6.7l-3.4-7.9L517.6,26.8z"/>
	<path d="M532.1,30.8c-1-1-1.5-2.6-1.5-4.6v-9.3h1.8v9.5c0,1.5,0.4,2.6,1.1,3.4c0.7,0.8,1.8,1.1,3.2,1.1s2.5-0.4,3.2-1.1
		s1.1-1.9,1.1-3.4v-9.5h1.8v9.3c0,2-0.5,3.6-1.6,4.6c-1,1.1-2.6,1.6-4.5,1.6C534.7,32.4,533.2,31.8,532.1,30.8z"/>
	<path d="M546.5,16.8h5.2c2.5,0,4.3,0.7,5.7,2c1.3,1.3,2,3.2,2,5.7s-0.7,4.3-2,5.7c-1.3,1.3-3.2,2-5.7,2h-5.2V16.8z M551.5,30.7
		c4,0,6-2.1,6-6.2s-2-6.1-6-6.1h-3.3v12.3H551.5z"/>
	<path d="M577.1,30.9c-0.8,0.8-1.9,1.2-3.3,1.4v2.4h-1.5v-2.4c-1-0.1-1.9-0.2-2.7-0.6c-0.8-0.3-1.6-0.8-2.2-1.4L568,29
		c0.8,0.6,1.5,1.1,2.3,1.4s1.6,0.4,2.6,0.4c1.1,0,2-0.2,2.7-0.7c0.6-0.5,1-1.2,1-2c0-0.5-0.2-0.9-0.5-1.3c-0.3-0.3-0.7-0.6-1.2-0.8
		c-0.5-0.2-1.2-0.4-2-0.6c-1.1-0.3-2-0.6-2.7-0.8c-0.7-0.3-1.3-0.7-1.7-1.3c-0.5-0.6-0.7-1.3-0.7-2.3c0-0.8,0.2-1.5,0.6-2.1
		c0.4-0.6,0.9-1.1,1.6-1.5c0.7-0.4,1.5-0.6,2.4-0.7v-2.4h1.5v2.4c0.8,0.1,1.6,0.3,2.4,0.6c0.8,0.3,1.4,0.8,1.9,1.3l-0.7,1.4
		c-1.3-1.2-2.8-1.8-4.4-1.8c-1.1,0-2,0.3-2.6,0.8s-1,1.2-1,2.1c0,0.6,0.2,1.1,0.5,1.5c0.4,0.4,0.8,0.6,1.3,0.8
		c0.5,0.2,1.2,0.4,2.2,0.6c1.1,0.3,1.9,0.5,2.5,0.8c0.6,0.2,1.2,0.6,1.6,1.2c0.5,0.5,0.7,1.2,0.7,2.1
		C578.3,29.2,577.9,30.1,577.1,30.9z"/>
</g>
<g>
	<path d="M591.5,31v1.5l-10,0v-1.4l5.5-6c0.7-0.8,1.3-1.6,1.6-2.2c0.3-0.7,0.5-1.3,0.5-2c0-0.9-0.3-1.5-0.8-2
		c-0.5-0.5-1.2-0.7-2.1-0.7c-1.5,0-3,0.6-4.4,1.8l-0.7-1.4c0.6-0.6,1.4-1.1,2.3-1.4c0.9-0.3,1.9-0.5,2.8-0.5c1.4,0,2.6,0.4,3.4,1.1
		c0.8,0.7,1.3,1.7,1.3,3c0,0.9-0.2,1.8-0.6,2.6c-0.4,0.8-1.1,1.7-2,2.8l-4.4,4.8L591.5,31z"/>
	<path d="M602.7,23.4c0.7,0.4,1.3,1,1.7,1.7c0.4,0.7,0.6,1.6,0.6,2.6c0,1-0.2,1.9-0.7,2.6c-0.4,0.8-1.1,1.3-1.8,1.8
		s-1.7,0.6-2.8,0.6c-0.9,0-1.9-0.2-2.8-0.5c-0.9-0.3-1.7-0.8-2.3-1.4l0.7-1.4c1.4,1.2,2.9,1.8,4.4,1.8c1.1,0,1.9-0.3,2.6-0.9
		c0.6-0.6,0.9-1.5,0.9-2.5c0-1-0.3-1.9-0.9-2.5c-0.6-0.6-1.4-1-2.4-1c-1.5,0-2.7,0.6-3.6,1.8l-1.3,0l0-9.1l9.4,0l0,1.5l-7.6,0l0,5.6
		c0.4-0.4,0.9-0.7,1.5-0.9c0.6-0.2,1.2-0.3,1.8-0.3C601.2,22.8,602,23,602.7,23.4z"/>
	<path d="M608.7,30.7c-0.9-1.4-1.4-3.3-1.4-5.9c0-2.6,0.5-4.6,1.4-6c0.9-1.4,2.3-2,4.1-2s3.1,0.7,4.1,2c0.9,1.4,1.4,3.3,1.4,5.9
		c0,2.6-0.5,4.6-1.4,6c-0.9,1.4-2.3,2-4.1,2C611,32.7,609.6,32.1,608.7,30.7z M615.5,29.6c0.6-1,0.9-2.7,0.9-4.9
		c0-2.2-0.3-3.9-0.9-4.9c-0.6-1-1.5-1.5-2.8-1.5c-1.2,0-2.2,0.5-2.7,1.5c-0.6,1-0.9,2.7-0.9,4.9c0,2.2,0.3,3.8,0.9,4.9
		c0.6,1,1.5,1.6,2.7,1.6S614.9,30.7,615.5,29.6z"/>
</g>
</svg>
